<svg width="1200" height="1200" viewBox="0 0 1200 1200" fill="none" xmlns="http://www.w3.org/2000/svg">
  <rect width="1200" height="1200" rx="80" fill="url(#bg)"/>
  <circle cx="600" cy="600" r="455" fill="#F8FAFC" stroke="url(#ring)" stroke-width="18"/>
  <circle cx="600" cy="450" r="120" fill="#0B1B3A"/>
  <path d="M452 398C405 438 405 522 452 560" stroke="#22C55E" stroke-width="18" stroke-linecap="round"/>
  <path d="M748 398C795 438 795 522 748 560" stroke="#22C55E" stroke-width="18" stroke-linecap="round"/>
  <path d="M496 362C430 420 430 540 496 596" stroke="#34D399" stroke-width="12" stroke-linecap="round"/>
  <path d="M704 362C770 420 770 540 704 596" stroke="#34D399" stroke-width="12" stroke-linecap="round"/>
  <path d="M600 330V398" stroke="#60A5FA" stroke-width="8" stroke-linecap="round"/>
  <path d="M600 502V570" stroke="#60A5FA" stroke-width="8" stroke-linecap="round"/>
  <path d="M480 450H548" stroke="#60A5FA" stroke-width="8" stroke-linecap="round"/>
  <path d="M652 450H720" stroke="#60A5FA" stroke-width="8" stroke-linecap="round"/>
  <circle cx="600" cy="450" r="28" fill="#EFF6FF"/>
  <circle cx="600" cy="318" r="30" fill="#F8FAFC" stroke="#CBD5E1" stroke-width="10"/>
  <circle cx="732" cy="450" r="30" fill="#F8FAFC" stroke="#CBD5E1" stroke-width="10"/>
  <circle cx="468" cy="450" r="30" fill="#F8FAFC" stroke="#CBD5E1" stroke-width="10"/>
  <circle cx="600" cy="582" r="30" fill="#F8FAFC" stroke="#CBD5E1" stroke-width="10"/>
  <text x="600" y="755" text-anchor="middle" fill="#142B63" font-family="Arial, sans-serif" font-size="92" font-weight="700">AXON LABS</text>
  <rect x="300" y="792" width="600" height="6" rx="3" fill="#16A34A"/>
  <text x="600" y="860" text-anchor="middle" fill="#1E293B" font-family="Arial, sans-serif" font-size="44" letter-spacing="4">EMBEDDED &amp; IOT PROJECTS</text>
  <defs>
    <linearGradient id="bg" x1="36" y1="54" x2="1128" y2="1138" gradientUnits="userSpaceOnUse">
      <stop stop-color="#2CC0F2"/>
      <stop offset="0.48" stop-color="#17335D"/>
      <stop offset="1" stop-color="#22C55E"/>
    </linearGradient>
    <linearGradient id="ring" x1="184" y1="171" x2="969" y2="983" gradientUnits="userSpaceOnUse">
      <stop stop-color="#1D9BF0"/>
      <stop offset="1" stop-color="#0F3B72"/>
    </linearGradient>
  </defs>
</svg>
