<svg xmlns="http://www.w3.org/2000/svg" viewBox="0 0 64 64" fill="none">
  <rect width="64" height="64" rx="18" fill="#09090B"/>
  <rect x="2" y="2" width="60" height="60" rx="16" stroke="#D4AF37" stroke-opacity="0.25"/>
  <path
    d="M43.46 17.39c-1.72-1.4-3.96-2.23-6.35-2.23-3.58 0-6.91 1.83-8.84 4.85a9.84 9.84 0 0 0-1.5 5.24c0 1.55.36 3.08 1.05 4.48-3.44 1.27-5.82 4.53-5.82 8.31 0 4.96 4.03 8.98 8.99 8.98h1.63c.88 0 1.59-.71 1.59-1.59s-.71-1.59-1.59-1.59h-1.63a5.8 5.8 0 0 1 0-11.6h1.04c.6 0 1.15-.34 1.42-.88.27-.54.22-1.18-.14-1.67a6.67 6.67 0 0 1-1.27-3.96 6.69 6.69 0 0 1 6.69-6.69c2.08 0 4.04.95 5.33 2.58.34.44.9.66 1.45.58a6.9 6.9 0 0 1 1-.07 6.45 6.45 0 0 1 6.45 6.45c0 2.98-2.01 5.6-4.88 6.37-.73.19-1.23.85-1.18 1.6l.01.23a1.59 1.59 0 0 1-3.17 0v-7.41c0-3.48-2.84-6.31-6.33-6.31a6.33 6.33 0 0 0-6.32 6.31v2.44a1.59 1.59 0 0 0 3.18 0v-2.44a3.15 3.15 0 0 1 3.14-3.14 3.15 3.15 0 0 1 3.15 3.14v7.41a4.76 4.76 0 0 0 9.49.58A9.64 9.64 0 0 0 55 29.43c0-5.31-4.32-9.63-9.63-9.63-.65 0-1.28.07-1.91.19Z"
    fill="#D4AF37"
  />
</svg>
