<?xml version="1.0" encoding="UTF-8"?>
<svg version="1.1" xmlns="http://www.w3.org/2000/svg" width="1139" height="1139">
<path d="M0 0 C375.87 0 751.74 0 1139 0 C1139 375.87 1139 751.74 1139 1139 C763.13 1139 387.26 1139 0 1139 C0 763.13 0 387.26 0 0 Z " fill="#FEFEFE" transform="translate(0,0)"/>
<path d="M0 0 C1.17523727 -0.00570007 2.35047455 -0.01140015 3.56132507 -0.01727295 C6.03965369 -0.02666876 8.51799449 -0.0332352 10.99633789 -0.03710938 C14.71328681 -0.04674939 18.42966627 -0.07779919 22.14648438 -0.109375 C36.84387008 -0.17596502 50.97132161 0.65556213 65.44921875 3.203125 C66.23934357 3.33968506 67.02946838 3.47624512 67.84353638 3.61694336 C72.30335009 4.39791112 76.74649733 5.24472866 81.18359375 6.14550781 C83.34554778 6.58243557 85.51034796 7.00257102 87.67578125 7.421875 C97.51515067 9.36961959 106.92419357 12.05976913 116.44921875 15.203125 C118.76077053 15.93529209 121.07310877 16.66498795 123.38671875 17.390625 C126.2890625 18.30859375 126.2890625 18.30859375 128.44921875 19.203125 C128.77921875 19.863125 129.10921875 20.523125 129.44921875 21.203125 C124.25112714 20.67270749 119.0954213 20.01767793 113.9296875 19.23046875 C93.43498063 16.13133767 74.78376437 15.79091577 54.19921875 17.515625 C53.48714264 17.57420685 52.77506653 17.6327887 52.04141235 17.69314575 C20.73886035 20.33117132 -10.36136541 29.3642194 -38.55078125 43.203125 C-39.31261719 43.56986328 -40.07445312 43.93660156 -40.859375 44.31445312 C-57.26457542 52.27461195 -71.88703322 62.25859563 -85.08203125 74.85546875 C-87.0768809 76.75246976 -89.08988546 78.48929109 -91.23828125 80.203125 C-96.01575341 84.25183022 -99.71024013 89.29110518 -103.55078125 94.203125 C-104.30746094 95.13253906 -105.06414062 96.06195313 -105.84375 97.01953125 C-115.94491832 109.79811767 -121.59328124 123.53334763 -125.55078125 139.203125 C-125.92009766 140.53730469 -125.92009766 140.53730469 -126.296875 141.8984375 C-131.97315742 164.99503494 -123.68393279 189.61544943 -112 209.44799805 C-107.26645274 217.20504367 -101.859694 223.65695399 -95.55078125 230.203125 C-94.46054553 231.50989714 -93.37668909 232.82203118 -92.30078125 234.140625 C-87.92597927 239.21117862 -82.68202821 243.37516304 -77.5625 247.6640625 C-74.55078125 250.203125 -74.55078125 250.203125 -72.55078125 252.203125 C-72.80901466 256.73450653 -73.81105684 258.93055188 -76.92578125 262.140625 C-91.64210429 279.68904618 -98.19135424 304.62315643 -102.05175781 326.74462891 C-102.47490399 328.82930697 -103.01581922 330.88953489 -103.58129883 332.94018555 C-104.67996653 337.29715231 -104.88908953 341.45498002 -104.921875 345.93359375 C-104.93294281 346.75415253 -104.94401062 347.5747113 -104.95541382 348.4201355 C-104.98233009 351.07715553 -104.98866927 353.73347446 -104.98828125 356.390625 C-104.99038101 357.75463943 -104.99038101 357.75463943 -104.99252319 359.14620972 C-104.97171818 375.62251646 -103.42130245 391.13867649 -99.55078125 407.203125 C-99.3585498 408.00878906 -99.16631836 408.81445312 -98.96826172 409.64453125 C-93.83330922 430.16598575 -83.28679378 451.11321878 -69.55078125 467.203125 C-68.86371094 468.02296875 -68.17664063 468.8428125 -67.46875 469.6875 C-51.33552386 488.33536209 -24.44620061 504.00785362 0.44921875 506.203125 C4.05705368 506.35495448 7.66276648 506.38682463 11.2734375 506.4140625 C13.37565873 506.4421386 15.47787216 506.47080311 17.58007812 506.5 C20.85343133 506.54110347 24.12664024 506.57804357 27.40014648 506.60449219 C47.02330425 506.77630035 65.05517509 507.65636658 80.44921875 521.203125 C81.45082031 522.04617188 81.45082031 522.04617188 82.47265625 522.90625 C93.33690796 532.78284246 98.74786468 546.78907372 104.421875 559.98193359 C114.39841081 584.2512574 114.39841081 584.2512574 134.33789062 599.97412109 C154.82456904 607.43768765 178.76341385 607.39302599 199.9921875 603.04296875 C204.32781845 602.16277329 208.67036543 601.72403734 213.06860352 601.27539062 C222.61199904 600.27298097 231.6840065 598.64118767 240.88671875 595.890625 C241.81508545 595.61895508 242.74345215 595.34728516 243.69995117 595.06738281 C250.9179012 592.7737181 258.14010943 589.66678897 262.44921875 583.203125 C263.38757802 575.85467515 262.09197821 568.76819409 260.6640625 561.57421875 C257.92609994 547.60027776 257.20161653 533.74456757 257.04281616 519.53305054 C257.02223488 517.86693646 256.9937269 516.20089974 256.9569397 514.5350647 C256.62294746 498.08702865 256.62294746 498.08702865 261.01538086 492.59008789 C268.52303292 485.32787585 278.48841239 483.20381548 288.35522461 481.04614258 C307.23078921 476.91410252 334.41474982 470.26350959 345.44921875 453.203125 C350.3785596 444.61590981 354.41322563 435.63068259 357.44921875 426.203125 C358.10921875 426.203125 358.76921875 426.203125 359.44921875 426.203125 C359.58972519 429.71578591 359.65333536 432.60438296 358.51171875 435.953125 C357.52505775 438.97114689 357.02628058 441.82282269 356.61401367 444.96289062 C355.2151672 455.17317352 351.6201988 463.35843374 346.44921875 472.203125 C345.94132813 473.07710937 345.4334375 473.95109375 344.91015625 474.8515625 C341.11745294 480.89022419 336.3360311 486.03800172 331.44921875 491.203125 C330.77246094 491.94433594 330.09570312 492.68554688 329.3984375 493.44921875 C312.95090889 510.82598627 290.60453714 520.84201631 269.44921875 531.203125 C269.36434849 536.6503137 269.36193104 541.88421606 270.32421875 547.265625 C271.16204697 552.27501748 271.82999093 557.28088651 272.38671875 562.328125 C272.99165216 567.78683999 273.74920134 573.19386328 274.66015625 578.61010742 C277.90023317 597.92257065 277.90023317 597.92257065 275.01171875 604.453125 C252.09024859 629.0517759 202.36120611 630.05404525 170.44921875 631.203125 C164.11753718 631.34444404 157.78559695 631.34751422 151.45263672 631.33349609 C148.58555789 631.32814616 145.71863655 631.33346921 142.8515625 631.33984375 C126.30789027 631.34768203 110.05780667 630.50500029 93.63671875 628.453125 C92.95176331 628.36797638 92.26680786 628.28282776 91.56109619 628.19509888 C57.80001962 623.93933224 57.80001962 623.93933224 49.51171875 616.453125 C46.28196285 614.49569718 44.02721718 615.33947021 40.44921875 616.203125 C39.6396875 616.65558594 38.83015625 617.10804688 37.99609375 617.57421875 C32.86773746 619.92942202 27.57629806 620.96141431 22.07421875 622.140625 C20.87901611 622.40004883 19.68381348 622.65947266 18.45239258 622.92675781 C6.84130599 625.40350317 -4.7937358 627.54982278 -16.55078125 629.203125 C-17.37594238 629.32171875 -18.20110352 629.4403125 -19.05126953 629.5625 C-45.538571 633.16928148 -75.12198115 633.33002839 -101.55078125 629.203125 C-102.41364746 629.06890137 -103.27651367 628.93467773 -104.16552734 628.79638672 C-110.65951712 627.75165613 -117.10637647 626.51665606 -123.55078125 625.203125 C-124.44909668 625.02410645 -125.34741211 624.84508789 -126.27294922 624.66064453 C-174.31094325 614.96307721 -222.98372659 592.07293829 -259.046875 558.5234375 C-261.11338358 556.60845139 -263.21222798 554.77078785 -265.36328125 552.953125 C-274.4191699 545.05251432 -282.89546872 536.41614703 -290.3359375 526.98046875 C-291.95553863 524.94954034 -293.593242 522.97720962 -295.296875 521.01953125 C-301.05198108 514.40492812 -306.0678513 507.76869891 -310.55078125 500.203125 C-311.26446458 499.02663903 -311.97937822 497.85089879 -312.6953125 496.67578125 C-314.63913585 493.47731208 -316.54998625 490.26031006 -318.45410156 487.03808594 C-319.44200742 485.38512503 -320.45948965 483.74992735 -321.48046875 482.1171875 C-328.92246893 469.85795898 -334.15225706 456.45147176 -339.55078125 443.203125 C-339.88384277 442.39472168 -340.2169043 441.58631836 -340.56005859 440.75341797 C-344.36194021 431.38363357 -346.77639498 421.71724121 -349.11328125 411.890625 C-349.38245361 410.76027832 -349.65162598 409.62993164 -349.92895508 408.46533203 C-350.67043378 405.21671593 -351.36990718 401.96511041 -352.03729248 398.70071411 C-352.40915206 396.89200381 -352.79008134 395.08515038 -353.17657471 393.2795105 C-357.02064653 375.09267768 -358.45203396 357.51704669 -358.3148613 338.94120026 C-358.30051909 336.85244429 -358.2946896 334.76378614 -358.29006958 332.67498779 C-358.21381246 310.32829985 -356.46867657 288.86372981 -351.02856445 267.13201904 C-350.27571974 264.09265376 -349.58548491 261.03868469 -348.87890625 257.98828125 C-343.69055309 236.57196411 -335.52036312 215.83658532 -325.55078125 196.203125 C-324.95499268 195.02580811 -324.95499268 195.02580811 -324.34716797 193.82470703 C-319.93242244 185.15318879 -315.42325782 176.63955277 -310.04296875 168.51953125 C-308.67504528 166.39602701 -307.51361033 164.26170551 -306.36328125 162.015625 C-299.73863371 149.89208702 -290.11208421 139.17577282 -281.00756836 128.86499023 C-280.03145512 127.75146538 -279.06614387 126.6283837 -278.11157227 125.49633789 C-272.71504077 119.15706402 -266.81952274 113.32073693 -260.92651367 107.44848633 C-259.11717192 105.64450415 -257.31323806 103.83523835 -255.50976562 102.02539062 C-249.69772548 96.20949787 -243.88805168 90.45384452 -237.55078125 85.203125 C-236.63296875 84.44128906 -235.71515625 83.67945313 -234.76953125 82.89453125 C-223.83045144 74.32872881 -212.20070246 66.75898679 -200.55078125 59.203125 C-199.71256836 58.65914063 -198.87435547 58.11515625 -198.01074219 57.5546875 C-187.56391281 50.83109244 -176.84183696 45.25837151 -165.53759766 40.11962891 C-163.07080964 38.9817176 -160.6526903 37.76036944 -158.23828125 36.515625 C-137.35339815 26.03754372 -115.10716123 19.49991846 -92.49560547 13.93310547 C-89.9992432 13.31429241 -87.51008221 12.6760238 -85.0234375 12.01953125 C-57.51214407 4.84145774 -28.45435207 0.1100199 0 0 Z " fill="#010101" transform="translate(573.55078125,253.796875)"/>
<path d="M0 0 C0.98162109 -0.01224609 1.96324219 -0.02449219 2.97460938 -0.03710938 C23.58941925 -0.07803885 42.21687253 8.30511823 57.03515625 22.4609375 C70.98884523 37.04138793 79.15412826 55.56414618 82.6875 75.1875 C82.87441406 76.13625 83.06132813 77.085 83.25390625 78.0625 C83.43824219 79.0525 83.62257813 80.0425 83.8125 81.0625 C84.06386719 82.38894531 84.06386719 82.38894531 84.3203125 83.7421875 C85.34837149 93.38844309 84.43743818 102.29415192 82.4375 111.75 C82.23253906 112.79607422 82.02757812 113.84214844 81.81640625 114.91992188 C79.80690366 124.72994815 76.72179886 133.94052562 71.9375 142.75 C71.41990112 143.70676636 71.41990112 143.70676636 70.8918457 144.68286133 C67.72944884 150.37086821 64.01300883 155.32226636 59.6875 160.1875 C58.83027344 161.17621094 57.97304688 162.16492188 57.08984375 163.18359375 C43.80244118 178.28785488 28.35583758 187.35030174 9.6875 194.1875 C8.84316406 194.50589844 7.99882813 194.82429687 7.12890625 195.15234375 C-3.69818823 199.03157012 -14.48618776 199.53476915 -25.86401367 199.50317383 C-28.24249 199.50000999 -30.61972295 199.52356594 -32.99804688 199.54882812 C-53.7027928 199.6349833 -69.0449428 192.51182912 -84.6328125 179.20703125 C-94.94499326 168.74872647 -101.02278427 152.98462651 -105.3125 139.1875 C-105.61800781 138.27484375 -105.92351563 137.3621875 -106.23828125 136.421875 C-114.02465194 112.36162053 -109.50132263 85.72047313 -99.3125 63.1875 C-99.04566406 62.58421875 -98.77882813 61.9809375 -98.50390625 61.359375 C-94.56722027 52.54421214 -89.82709741 45.2983487 -83.3125 38.1875 C-82.61382813 37.41921875 -81.91515625 36.6509375 -81.1953125 35.859375 C-60.04607806 13.70303415 -30.65544918 0.01989322 0 0 Z " fill="#010101" transform="translate(620.3125,509.8125)"/>
<path d="M0 0 C0.97291992 0.00161133 1.94583984 0.00322266 2.94824219 0.00488281 C11.05567313 0.14193252 17.82696595 1.47718137 25.4375 4.375 C26.32308594 4.67535156 27.20867187 4.97570312 28.12109375 5.28515625 C39.17592434 9.26903436 48.11826314 16.22715788 56.4375 24.375 C57.26121094 25.15101563 58.08492187 25.92703125 58.93359375 26.7265625 C76.69911267 44.63065801 84.72638111 72.79960014 84.8203125 97.55932617 C84.39091623 117.51954336 76.3043581 139.41612187 64.4375 155.375 C63.90769531 156.09816406 63.37789062 156.82132813 62.83203125 157.56640625 C55.7998897 166.36911076 45.46438957 172.26266539 34.4375 174.375 C14.11991879 176.41590368 -3.43382557 171.09775669 -19.2578125 158.20703125 C-33.93287243 145.83231534 -43.56485633 131.74208047 -51.5625 114.375 C-52.2740625 112.83972656 -52.2740625 112.83972656 -53 111.2734375 C-63.78736184 85.72087414 -63.84393358 59.92698104 -53.5625 34.375 C-47.08185948 20.31803074 -38.50155213 10.17800008 -23.75 4.4375 C-21.70030888 3.71270428 -19.63718402 3.02480669 -17.5625 2.375 C-16.49773438 2.01019531 -15.43296875 1.64539063 -14.3359375 1.26953125 C-9.50438286 0.12416271 -4.95002729 -0.00852571 0 0 Z " fill="#010101" transform="translate(814.5625,495.625)"/>
<path d="M0 0 C21.41615562 14.68304609 32.15298321 50.41825915 36.9375 74.4375 C37.31777634 76.62408893 37.69355259 78.81147103 38.0625 81 C38.42583613 82.62764765 38.79935074 84.25309058 39.1875 85.875 C40.15922972 90.24778375 40.74756857 94.53191035 41.0625 99 C41.18625 100.21816406 41.31 101.43632813 41.4375 102.69140625 C42.18327013 112.5835056 42.18327013 112.5835056 39.30078125 116.2265625 C32.9316304 120.61684306 25.77590899 122.66494905 18.0625 122 C9.06164487 119.88215173 1.18588166 115.57306902 -5.33203125 109.0390625 C-6.90331044 107.79897444 -6.90331044 107.79897444 -8.96484375 108.109375 C-11.42861078 109.22172922 -12.21109455 110.37565288 -13.6875 112.625 C-19.46293874 120.69617564 -27.37031098 127.31840244 -37.2578125 129.515625 C-42.71514643 129.93395722 -46.61742388 128.21290427 -50.91796875 124.9140625 C-56.15558047 119.94998176 -57.92841364 115.20466413 -58.3046875 108.0234375 C-58.44353274 102.33629647 -58.25446447 96.67834053 -57.9375 91 C-57.87731689 89.88818359 -57.87731689 89.88818359 -57.81591797 88.75390625 C-57.05249976 77.01247784 -53.59334308 66.10903077 -49.9375 55 C-49.67839844 54.2064209 -49.41929687 53.4128418 -49.15234375 52.59521484 C-43.15576639 34.3821254 -33.90804796 9.45145758 -15.86328125 -0.09765625 C-10.13524957 -2.4434216 -5.54844445 -3.15228322 0 0 Z " fill="#020202" transform="translate(767.9375,646)"/>
<path d="M0 0 C5.74231776 0.62349563 10.91184629 2.09136135 16.375 3.9375 C17.60283203 4.33485352 17.60283203 4.33485352 18.85546875 4.74023438 C19.63277344 4.99998047 20.41007813 5.25972656 21.2109375 5.52734375 C22.26740479 5.87913696 22.26740479 5.87913696 23.34521484 6.23803711 C25 7 25 7 26 9 C18.80258149 8.22046887 11.62015141 7.34236687 4.4375 6.4375 C3.33341797 6.29892578 2.22933594 6.16035156 1.09179688 6.01757812 C-1.60554039 5.67895137 -4.30280357 5.33974639 -7 5 C-7 4.67 -7 4.34 -7 4 C-5.02 4 -3.04 4 -1 4 C-0.67 2.68 -0.34 1.36 0 0 Z " fill="#30263D" transform="translate(677,266)"/>
<path d="M0 0 C11.22 0 22.44 0 34 0 C34 0.33 34 0.66 34 1 C11.03121573 3.56225482 -11.92546249 3.20106508 -35 3 C-35 2.67 -35 2.34 -35 2 C-23.45 2 -11.9 2 0 2 C0 1.34 0 0.68 0 0 Z " fill="#504558" transform="translate(735,882)"/>
<path d="M0 0 C0.66 0 1.32 0 2 0 C2.1957782 4.89445512 1.59359747 8.40668965 0 13 C-0.43996764 15.66397991 -0.72193778 18.31206524 -1 21 C-1.33 19.68 -1.66 18.36 -2 17 C-2.99 17.33 -3.98 17.66 -5 18 C-5 18.99 -5 19.98 -5 21 C-6.98 21.99 -6.98 21.99 -9 23 C-7.8744239 19.11164619 -6.35361924 15.64397671 -4.5 12.0625 C-2.45405725 8.0732134 -1.04097551 4.35317031 0 0 Z " fill="#221C20" transform="translate(931,680)"/>
<path d="M0 0 C4.05606165 0.46800711 7.46588679 0.87953208 11 3 C11 3.33 11 3.66 11 4 C7.00204108 4.95619733 3.29196078 5.1039592 -0.8125 5.0625 C-1.97394531 5.05347656 -3.13539063 5.04445313 -4.33203125 5.03515625 C-5.21246094 5.02355469 -6.09289062 5.01195312 -7 5 C-7 4.67 -7 4.34 -7 4 C-5.02 4 -3.04 4 -1 4 C-0.67 2.68 -0.34 1.36 0 0 Z " fill="#1E191E" transform="translate(677,266)"/>
<path d="M0 0 C1.32 0 2.64 0 4 0 C4 2.64 4 5.28 4 8 C3.67 6.68 3.34 5.36 3 4 C2.01 4.33 1.02 4.66 0 5 C0 5.99 0 6.98 0 8 C-1.98 8.99 -1.98 8.99 -4 10 C-2.8905928 6.51329166 -1.73662334 3.22515763 0 0 Z " fill="#272324" transform="translate(926,693)"/>
<path d="M0 0 C7.48291572 6.15034169 7.48291572 6.15034169 10 10 C7 10 7 10 4.95703125 8.25 C4.24933594 7.5075 3.54164063 6.765 2.8125 6 C2.09707031 5.2575 1.38164063 4.515 0.64453125 3.75 C0.10183594 3.1725 -0.44085937 2.595 -1 2 C-0.67 1.34 -0.34 0.68 0 0 Z " fill="#14121B" transform="translate(784,640)"/>
<path d="M0 0 C0.33 0.66 0.66 1.32 1 2 C-1.31 4.64 -3.62 7.28 -6 10 C-6.66 9.67 -7.32 9.34 -8 9 C-5.36 6.03 -2.72 3.06 0 0 Z " fill="#242125" transform="translate(298,376)"/>
<path d="M0 0 C0.66 0 1.32 0 2 0 C2 2.31 2 4.62 2 7 C1.01 7 0.02 7 -1 7 C-0.67 4.69 -0.34 2.38 0 0 Z " fill="#463F45" transform="translate(931,680)"/>
<path d="M0 0 C0 0.66 0 1.32 0 2 C-3.465 3.485 -3.465 3.485 -7 5 C-7.66 4.34 -8.32 3.68 -9 3 C-2.25 0 -2.25 0 0 0 Z " fill="#14202A" transform="translate(427,286)"/>
</svg>
